<svg width="39" height="35" viewBox="0 0 39 35" fill="none" xmlns="http://www.w3.org/2000/svg">
<path d="M18.4732 32.9227C17.0992 31.2191 15.6737 29.9161 11.587 26.628C8.75482 24.3493 7.85914 23.5798 6.48724 22.2464C4.46643 20.2824 3.23021 18.6921 2.24262 16.7861C0.656005 13.7238 0.284327 10.0505 1.27925 7.26478C2.47332 3.92147 5.43853 1.44675 8.97706 0.84028C12.1936 0.306938 15.7216 1.66916 17.6823 3.56697C18.5577 4.43399 19.0101 5.03356 19.5205 6.00352C19.8218 6.39723 19.7386 7.00694 20.0014 6.40129C20.4969 5.2591 21.562 3.88446 22.6369 3.00001C24.6577 1.3372 27.1295 0.55356 29.7886 0.73268C34.1736 1.05053 37.9689 4.91692 38.8121 8.56256C39.0716 9.7792 39.0428 11.7435 38.7439 13.2227C38.0667 16.5736 36.0519 19.7326 32.568 22.9062C31.3072 24.0546 30.488 24.7433 28.0208 26.7286C25.0426 29.1252 24.2864 29.7772 22.9475 31.1029C21.5246 32.5118 20.6976 33.5458 19.9006 34.9123C19.5318 34.6478 18.8839 33.4368 18.4732 32.9227ZM20.8891 30.5758C22.0734 29.2855 23.5381 27.9965 26.7159 25.4477C29.6167 23.1211 30.6821 22.2021 32.0784 20.8218C33.9997 18.9225 35.0637 17.5332 35.9051 15.8251C36.6448 14.3234 37.026 12.962 37.1567 11.356C37.5028 7.10139 34.7685 3.47529 30.5788 2.63276C27.4274 1.99901 24.0201 3.43257 22.2417 6.14039C20.9626 8.05941 20.7399 9.60407 19.8885 11.2716C19.054 9.73417 18.7025 8.27037 17.7909 6.62587C16.02 3.54214 12.5324 1.95692 9.06139 2.65803C5.63676 3.34978 3.10466 6.03229 2.60864 9.4941C2.28251 12.7259 3.67896 16.0207 5.30287 18.2046C6.8587 20.2658 8.58782 21.8985 12.7201 25.2082C16.5491 28.275 18.0884 29.6539 19.4271 31.2161C19.7873 31.5486 19.6941 31.8995 20.0315 31.5176C20.1282 31.4082 20.5141 30.9844 20.8891 30.5758Z" fill="#5C67D6"/>
</svg>
