<svg width="44" height="44" viewBox="0 0 44 44" fill="none" xmlns="http://www.w3.org/2000/svg">
<path d="M1.95569 2.05518C1.95569 2.05518 5.95096 -1.04543 7.57215 3.68183C8.32953 5.89027 9.43016 9.95994 9.43016 9.95994" stroke="#5C67D6" stroke-width="2.09386" stroke-linecap="round" stroke-linejoin="round"/>
<path d="M15.4376 12.9276L10.838 12.9436L14.4316 28.2727H36.0113L42.4593 12.9509L36.5082 12.9337" stroke="#5C67D6" stroke-width="2.09386" stroke-linecap="round" stroke-linejoin="round"/>
<path d="M14.5406 28.5395C14.5406 28.5395 12.1892 31.3081 13.4238 32.6048C14.5774 33.8165 37.5602 32.9808 37.5602 32.9808" stroke="#5C67D6" stroke-width="2.09386" stroke-linecap="round" stroke-linejoin="round"/>
<path d="M33.9523 42.6104C35.6939 42.6104 37.1058 41.1932 37.1058 39.445C37.1058 37.6968 35.6939 36.2797 33.9523 36.2797C32.2107 36.2797 30.7988 37.6968 30.7988 39.445C30.7988 41.1932 32.2107 42.6104 33.9523 42.6104Z" stroke="#5C67D6" stroke-width="1.71591" stroke-linecap="round" stroke-linejoin="round"/>
<path d="M15.7381 42.6104C17.4797 42.6104 18.8915 41.1932 18.8915 39.445C18.8915 37.6968 17.4797 36.2797 15.7381 36.2797C13.9964 36.2797 12.5846 37.6968 12.5846 39.445C12.5846 41.1932 13.9964 42.6104 15.7381 42.6104Z" stroke="#5C67D6" stroke-width="1.71591" stroke-linecap="round" stroke-linejoin="round"/>
</svg>
